<svg width="608" height="626" viewBox="0 0 608 626" fill="none" xmlns="http://www.w3.org/2000/svg">
<path d="M600.321 235.05H31.9609V618.2H600.321V235.05Z" stroke="black" stroke-width="15" stroke-linecap="round" stroke-linejoin="round"/>
<path d="M600.321 299.91H31.9609L130.401 235.05" stroke="black" stroke-width="15" stroke-linecap="round" stroke-linejoin="round"/>
<path d="M152.779 299.91L242.969 235.05" stroke="black" stroke-width="15" stroke-linecap="round" stroke-linejoin="round"/>
<path d="M316.141 299.91L385.121 235.05" stroke="black" stroke-width="15" stroke-linecap="round" stroke-linejoin="round"/>
<path d="M479.359 299.91L535.449 235.05" stroke="black" stroke-width="15" stroke-linecap="round" stroke-linejoin="round"/>
<path d="M574.28 71.42L32.86 232.54L8 169.13L549.42 8L574.28 71.42Z" stroke="black" stroke-width="15" stroke-linecap="round" stroke-linejoin="round"/>
<path d="M8 169.13L113 208.69" stroke="black" stroke-width="15" stroke-linecap="round" stroke-linejoin="round"/>
<path d="M112.369 138.07L221.919 176.28" stroke="black" stroke-width="15" stroke-linecap="round" stroke-linejoin="round"/>
<path d="M245.43 98.4697L357.71 135.87" stroke="black" stroke-width="15" stroke-linecap="round" stroke-linejoin="round"/>
<path d="M414.65 47.98L517.27 88.25" stroke="black" stroke-width="15" stroke-linecap="round" stroke-linejoin="round"/>
<path d="M135.48 377.31H476.81" stroke="black" stroke-width="15" stroke-linecap="round" stroke-linejoin="round"/>
<path d="M242.641 377.31V475.72" stroke="black" stroke-width="15" stroke-linecap="round" stroke-linejoin="round"/>
<path d="M363.77 377.31V475.72" stroke="black" stroke-width="15" stroke-linecap="round" stroke-linejoin="round"/>
<path d="M135.84 476.22H477.18" stroke="black" stroke-width="15" stroke-linecap="round" stroke-linejoin="round"/>
<path d="M135.48 531.79H479.36" stroke="black" stroke-width="15" stroke-linecap="round" stroke-linejoin="round"/>
</svg>
