<svg width="907" height="841" viewBox="0 0 907 841" fill="none" xmlns="http://www.w3.org/2000/svg">
<path d="M40 42C40 40.8955 40.8954 40 42 40H864.631C865.735 40 866.631 40.8954 866.631 42V798.5C866.631 799.605 865.735 800.5 864.631 800.5H42C40.8954 800.5 40 799.605 40 798.5V42Z" fill="white"/>
<path d="M42 41H864.631V39H42V41ZM865.631 42V798.5H867.631V42H865.631ZM864.631 799.5H42V801.5H864.631V799.5ZM41 798.5V42H39V798.5H41ZM42 799.5C41.4477 799.5 41 799.053 41 798.5H39C39 800.157 40.3432 801.5 42 801.5V799.5ZM865.631 798.5C865.631 799.053 865.183 799.5 864.631 799.5V801.5C866.288 801.5 867.631 800.157 867.631 798.5H865.631ZM864.631 41C865.183 41 865.631 41.4477 865.631 42H867.631C867.631 40.3431 866.288 39 864.631 39V41ZM42 39C40.3431 39 39 40.3432 39 42H41C41 41.4477 41.4477 41 42 41V39Z" fill="black" fill-opacity="0.1"/>
<path d="M158.5 208.54V140H227.04" stroke="black" stroke-width="15" stroke-linecap="round" stroke-linejoin="round"/>
<path d="M748.11 208.54V140H679.57" stroke="black" stroke-width="15" stroke-linecap="round" stroke-linejoin="round"/>
<path d="M747.171 631.97V700.5H678.631" stroke="black" stroke-width="15" stroke-linecap="round" stroke-linejoin="round"/>
<path d="M156.631 631.97V700.5H225.161" stroke="black" stroke-width="15" stroke-linecap="round" stroke-linejoin="round"/>
<path d="M451.891 548C537.771 548 607.391 469.426 607.391 372.5C607.391 275.574 537.771 197 451.891 197C366.01 197 296.391 275.574 296.391 372.5C296.391 469.426 366.01 548 451.891 548Z" stroke="black" stroke-width="15" stroke-miterlimit="10"/>
<path d="M388.72 533.26V604.5L307.34 644.68" stroke="black" stroke-width="15" stroke-linecap="round" stroke-linejoin="round"/>
<path d="M517.08 534.24V605.49L609.98 644.68" stroke="black" stroke-width="15" stroke-linecap="round" stroke-linejoin="round"/>
<path d="M601.391 337C626.781 342.8 644.531 366.1 643.391 392C642.261 417.65 622.891 439.17 597.391 443" stroke="black" stroke-width="15" stroke-miterlimit="10"/>
<path d="M303.341 337.07C277.951 342.87 260.201 366.17 261.341 392.07C262.471 417.72 281.841 439.24 307.341 443.07" stroke="black" stroke-width="15" stroke-miterlimit="10"/>
<path d="M394.371 356V391" stroke="black" stroke-width="25" stroke-miterlimit="10" stroke-linecap="round"/>
<path d="M510.371 355V390" stroke="black" stroke-width="25" stroke-miterlimit="10" stroke-linecap="round"/>
<path d="M728.871 389.54H766.371" stroke="black" stroke-width="15" stroke-linecap="round" stroke-linejoin="round"/>
<path d="M729.131 438.46H766.631" stroke="black" stroke-width="15" stroke-linecap="round" stroke-linejoin="round"/>
<path d="M729.131 487.46H766.631" stroke="black" stroke-width="15" stroke-linecap="round" stroke-linejoin="round"/>
<path d="M140 389.54H177.5" stroke="black" stroke-width="15" stroke-linecap="round" stroke-linejoin="round"/>
<path d="M140.271 438.46H177.771" stroke="black" stroke-width="15" stroke-linecap="round" stroke-linejoin="round"/>
<path d="M140.271 487.46H177.771" stroke="black" stroke-width="15" stroke-linecap="round" stroke-linejoin="round"/>
<rect x="40" y="4" width="34.0469" height="30" rx="3" fill="white"/>
<rect x="40.5" y="4.5" width="33.0469" height="29" rx="2.5" stroke="black" stroke-opacity="0.2"/>
<path d="M47.9375 14V22H46.9688V14H47.9375ZM52.1924 22.125C51.6299 22.125 51.1455 21.9922 50.7393 21.7266C50.333 21.4609 50.0205 21.0951 49.8018 20.6289C49.583 20.1628 49.4736 19.6302 49.4736 19.0312C49.4736 18.4219 49.5856 17.8841 49.8096 17.418C50.0361 16.9492 50.3512 16.5833 50.7549 16.3203C51.1611 16.0547 51.6351 15.9219 52.1768 15.9219C52.5986 15.9219 52.9788 16 53.3174 16.1562C53.6559 16.3125 53.9333 16.5312 54.1494 16.8125C54.3656 17.0937 54.4997 17.4219 54.5518 17.7969H53.6299C53.5596 17.5234 53.4033 17.2812 53.1611 17.0703C52.9215 16.8568 52.5986 16.75 52.1924 16.75C51.833 16.75 51.5179 16.8437 51.2471 17.0312C50.9788 17.2161 50.7692 17.4779 50.6182 17.8164C50.4697 18.1523 50.3955 18.5469 50.3955 19C50.3955 19.4635 50.4684 19.8672 50.6143 20.2109C50.7627 20.5547 50.971 20.8216 51.2393 21.0117C51.5101 21.2018 51.8278 21.2969 52.1924 21.2969C52.432 21.2969 52.6494 21.2552 52.8447 21.1719C53.04 21.0885 53.2054 20.9688 53.3408 20.8125C53.4762 20.6562 53.5726 20.4687 53.6299 20.25H54.5518C54.4997 20.6042 54.3708 20.9232 54.165 21.207C53.9619 21.4883 53.6924 21.7122 53.3564 21.8789C53.0231 22.043 52.6351 22.125 52.1924 22.125ZM58.3369 22.125C57.7952 22.125 57.32 21.9961 56.9111 21.7383C56.5049 21.4805 56.1872 21.1198 55.958 20.6562C55.7314 20.1927 55.6182 19.651 55.6182 19.0312C55.6182 18.4062 55.7314 17.8607 55.958 17.3945C56.1872 16.9284 56.5049 16.5664 56.9111 16.3086C57.32 16.0508 57.7952 15.9219 58.3369 15.9219C58.8786 15.9219 59.3525 16.0508 59.7588 16.3086C60.1676 16.5664 60.4854 16.9284 60.7119 17.3945C60.9411 17.8607 61.0557 18.4062 61.0557 19.0312C61.0557 19.651 60.9411 20.1927 60.7119 20.6562C60.4854 21.1198 60.1676 21.4805 59.7588 21.7383C59.3525 21.9961 58.8786 22.125 58.3369 22.125ZM58.3369 21.2969C58.7484 21.2969 59.0869 21.1914 59.3525 20.9805C59.6182 20.7695 59.8148 20.4922 59.9424 20.1484C60.07 19.8047 60.1338 19.4323 60.1338 19.0312C60.1338 18.6302 60.07 18.2565 59.9424 17.9102C59.8148 17.5638 59.6182 17.2839 59.3525 17.0703C59.0869 16.8568 58.7484 16.75 58.3369 16.75C57.9255 16.75 57.5869 16.8568 57.3213 17.0703C57.0557 17.2839 56.859 17.5638 56.7314 17.9102C56.6038 18.2565 56.54 18.6302 56.54 19.0312C56.54 19.4323 56.6038 19.8047 56.7314 20.1484C56.859 20.4922 57.0557 20.7695 57.3213 20.9805C57.5869 21.1914 57.9255 21.2969 58.3369 21.2969ZM63.3848 18.3906V22H62.4629V16H63.3535V16.9375H63.4316C63.5723 16.6328 63.7858 16.388 64.0723 16.2031C64.3587 16.0156 64.7285 15.9219 65.1816 15.9219C65.5879 15.9219 65.9434 16.0052 66.248 16.1719C66.5527 16.3359 66.7897 16.5859 66.959 16.9219C67.1283 17.2552 67.2129 17.6771 67.2129 18.1875V22H66.291V18.25C66.291 17.7786 66.1686 17.4115 65.9238 17.1484C65.679 16.8828 65.3431 16.75 64.916 16.75C64.6217 16.75 64.3587 16.8138 64.127 16.9414C63.8978 17.069 63.7168 17.2552 63.584 17.5C63.4512 17.7448 63.3848 18.0417 63.3848 18.3906Z" fill="black"/>
</svg>
